<svg width="872" height="1909" viewBox="0 0 872 1909" fill="none" xmlns="http://www.w3.org/2000/svg">
<g id="Group 1">
<g id="Vector">
<path d="M700 241.5C700 177.45 674.556 116.024 629.266 70.7337C583.976 25.4437 522.55 4.83562e-06 458.5 0C394.45 -4.83562e-06 333.024 25.4437 287.734 70.7337C242.444 116.024 217 177.45 217 241.5L700 241.5Z" fill="#D9D9D9"/>
<path d="M635 242C635 195.322 616.457 150.556 583.451 117.549C550.444 84.5428 505.678 66 459 66C412.322 66 367.556 84.5428 334.549 117.549C301.543 150.556 283 195.322 283 242L635 242Z" fill="#595959"/>
</g>
<rect id="Rectangle 2" x="169" y="230" width="578" height="328" rx="53" fill="#2E0E0E"/>
<path id="Vector_2" d="M694 1585H222C192.729 1585 169 1608.44 169 1637.35V1856.65C169 1885.56 192.729 1909 222 1909H694C723.271 1909 747 1885.56 747 1856.65V1637.35C747 1608.44 723.271 1585 694 1585Z" fill="#2E0E0E"/>
<g id="Rectangle 1">
<rect x="44" y="394" width="828" height="1373" rx="112" fill="#8E2525"/>
<rect x="44" y="394" width="828" height="1373" rx="112" fill="#8E2525"/>
</g>
<mask id="mask0_3_23" style="mask-type:alpha" maskUnits="userSpaceOnUse" x="0" y="394" width="432" height="1373">
<g id="Rectangle 3" style="mix-blend-mode:multiply">
<rect y="394" width="432" height="1373" fill="#7D0707"/>
</g>
</mask>
<g mask="url(#mask0_3_23)">
<rect id="Rectangle 1_2" x="44" y="394" width="828" height="1373" rx="112" fill="#6B0505"/>
</g>
</g>
</svg>
